Results
version=1
nRows=14
nColumns=24
inDegrees=yes
endheader
time	pelvis_tilt	pelvis_list	pelvis_rotation	pelvis_tx	pelvis_ty	pelvis_tz	hip_flexion_r	hip_adduction_r	hip_rotation_r	knee_angle_r	ankle_angle_r	subtalar_angle_r	mtp_angle_r	hip_flexion_l	hip_adduction_l	hip_rotation_l	knee_angle_l	ankle_angle_l	subtalar_angle_l	mtp_angle_l	lumbar_extension	lumbar_bending	lumbar_rotation
      0.80033333	     -6.81500623	     -3.46208291	      6.10493829	     -0.40545021	      0.89973793	      0.32762957	     20.65205089	      7.84868749	     -7.58985635	    -23.74205548	     10.32829360	     -2.70094587	      6.29898189	     22.65684362	     -7.83896482	     -4.76769226	    -71.54002727	     -2.77831292	     -7.77744962	      6.09818837	      2.84173912	      4.89617083	     -2.46863692
      0.80450000	     -6.84233709	     -3.34567817	      5.90697822	     -0.40025871	      0.90081540	      0.32808702	     20.08807402	      7.85156997	     -7.37495058	    -23.32598694	     10.43727069	     -2.52593740	      6.27873434	     23.19989008	     -7.64193042	     -4.97460565	    -71.13528205	     -2.17246210	     -7.71070551	      6.00876963	      2.85883094	      4.77356688	     -2.06450923
      0.80866667	     -6.86545897	     -3.22075677	      5.69506421	     -0.39508855	      0.90190027	      0.32854364	     19.51644159	      7.84482949	     -7.14244391	    -22.89965874	     10.50369779	     -2.35222837	      6.25672905	     23.71816803	     -7.43363652	     -5.18982601	    -70.66071430	     -1.59688243	     -7.68603419	      5.91969266	      2.85759166	      4.66068050	     -1.73323205
      0.81283333	     -6.90372378	     -3.09275939	      5.48233923	     -0.38992655	      0.90295425	      0.32899484	     18.95614473	      7.82622578	     -6.92988311	    -22.45909786	     10.53249029	     -2.18822104	      6.25119671	     24.24071140	     -7.22160305	     -5.41262516	    -70.12164531	     -1.06115301	     -7.72757271	      5.89853115	      2.89741266	      4.52604248	     -1.60115565
      0.81700000	     -6.86515698	     -2.95433479	      5.24860740	     -0.38476940	      0.90411990	      0.32947425	     18.30231752	      7.80989624	     -6.67575751	    -22.00066099	     10.62335144	     -1.98734648	      6.23554184	     24.64976446	     -7.01708169	     -5.64942662	    -69.50973333	     -0.50854791	     -7.55265999	      5.83430354	      2.79356677	      4.41397535	     -1.11750580
      0.82116667	     -6.85207379	     -2.81273563	      5.01056228	     -0.37961643	      0.90523140	      0.32994348	     17.67404611	      7.77971940	     -6.43704926	    -21.53434822	     10.66440525	     -1.80181408	      6.22062389	     25.07108342	     -6.80611488	     -5.89348825	    -68.83522295	     -0.00264962	     -7.47261076	      5.77656425	      2.74760276	      4.28326922	     -0.77630745
      0.82533333	     -6.83285136	     -2.65937521	      4.75948633	     -0.37449888	      0.90633832	      0.33041035	     17.04212875	      7.73263359	     -6.19076407	    -21.06939389	     10.68021250	     -1.60779664	      6.21222653	     25.46605262	     -6.58262114	     -6.14586092	    -68.09305947	      0.48963511	     -7.38802416	      5.74525035	      2.68171712	      4.15541130	     -0.52200989
      0.82950000	     -6.77626403	     -2.52152126	      4.51930155	     -0.36933633	      0.90747211	      0.33089732	     16.34680839	      7.70317507	     -5.96234757	    -20.55624661	     10.73389929	     -1.41425084	      6.20258772	     25.80757956	     -6.39204891	     -6.39755969	    -67.29917612	      0.94050841	     -7.23824191	      5.70386613	      2.58960976	      4.01556824	     -0.12551552
      0.83366667	     -6.72660451	     -2.37184832	      4.26204714	     -0.36421240	      0.90856822	      0.33138548	     15.66703093	      7.65587988	     -5.72163905	    -20.05421555	     10.75592118	     -1.22445002	      6.19462353	     26.13625197	     -6.18744904	     -6.65911669	    -66.44196205	      1.37688894	     -7.10113250	      5.66961823	      2.49676714	      3.87520745	      0.20838062
      0.83783333	     -6.68143939	     -2.21161824	      3.99134898	     -0.35911973	      0.90962783	      0.33186758	     15.00042141	      7.59055678	     -5.47533690	    -19.56464985	     10.74114055	     -1.02732923	      6.18997603	     26.44974094	     -5.97092477	     -6.92854635	    -65.52315944	      1.79654959	     -6.97244222	      5.65060884	      2.39962415	      3.73718519	      0.46934574
      0.84200000	     -6.59402551	     -2.07403686	      3.73717497	     -0.35400808	      0.91070683	      0.33236132	     14.26534148	      7.54898923	     -5.24813251	    -19.02166976	     10.78465814	     -0.83834798	      6.18578212	     26.71100663	     -5.78874021	     -7.18435703	    -64.56146645	      2.17814789	     -6.78786157	      5.62427009	      2.26519534	      3.59636571	      0.86850319
      0.84616667	     -6.52464355	     -1.92660675	      3.47020790	     -0.34891778	      0.91171876	      0.33285255	     13.55892882	      7.48982651	     -5.01027821	    -18.49495915	     10.79003135	     -0.64914442	      6.18215794	     26.97179751	     -5.59492820	     -7.44682460	    -63.54210341	      2.53954522	     -6.62469679	      5.59989926	      2.14654798	      3.45999163	      1.20984885
      0.85033333	     -6.44844624	     -1.78027996	      3.19748920	     -0.34385225	      0.91269254	      0.33334475	     12.84852388	      7.42668610	     -4.77418678	    -17.96789107	     10.79231519	     -0.46259916	      6.18013872	     27.21005684	     -5.40404174	     -7.70875393	    -62.47120355	      2.87729384	     -6.45163056	      5.57703600	      2.01701772	      3.32338368	      1.54782224
      0.85450000	     -6.37926213	     -1.62436003	      2.91190177	     -0.33881160	      0.91361115	      0.33383439	     12.15733360	      7.34540457	     -4.53741424	    -17.45988064	     10.76417220	     -0.26944776	      6.17974882	     27.43447108	     -5.20368201	     -7.97788809	    -61.34045812	      3.18986125	     -6.28915367	      5.56210763	      1.89018057	      3.18028451	      1.82130822
